<?xml version="1.0" standalone="no"?><!DOCTYPE svg PUBLIC "-//W3C//DTD SVG 1.1//EN" "http://www.w3.org/Graphics/SVG/1.1/DTD/svg11.dtd"><svg t="1693295693377" class="icon" viewBox="0 0 1024 1024" version="1.1" xmlns="http://www.w3.org/2000/svg" p-id="40476" data-spm-anchor-id="a313x.search_index.0.i24.4a4c3a81DA1gyP" xmlns:xlink="http://www.w3.org/1999/xlink" width="200" height="200"><path d="M743 475H283c-22 0-40 18-40 40s18 40 40 40h460c22 0 40-18 40-40s-18-40-40-40z" fill="#dbdbdb" p-id="40477" data-spm-anchor-id="a313x.search_index.0.i21.4a4c3a81DA1gyP" class="selected"></path><path d="M511.2 147c49.7 0 97.9 9.7 143.2 28.9 43.8 18.5 83.2 45.1 117 78.9 33.8 33.8 60.4 73.2 78.9 117 19.2 45.3 28.9 93.5 28.9 143.2s-9.7 97.9-28.9 143.2c-18.5 43.8-45.1 83.2-78.9 117-33.8 33.8-73.2 60.4-117 78.9-45.3 19.2-93.5 28.9-143.2 28.9s-97.9-9.7-143.2-28.9c-43.8-18.5-83.2-45.1-117-78.9-33.8-33.8-60.4-73.2-78.9-117-19.2-45.3-28.9-93.5-28.9-143.2s9.7-97.9 28.9-143.2c18.5-43.8 45.1-83.2 78.9-117 33.8-33.8 73.2-60.4 117-78.9 45.3-19.1 93.5-28.9 143.2-28.9m0-80c-247.4 0-448 200.6-448 448s200.6 448 448 448 448-200.6 448-448-200.6-448-448-448z" fill="#dbdbdb" p-id="40478" data-spm-anchor-id="a313x.search_index.0.i22.4a4c3a81DA1gyP" class=""></path></svg>