<?xml version="1.0" standalone="no"?><!DOCTYPE svg PUBLIC "-//W3C//DTD SVG 1.1//EN" "http://www.w3.org/Graphics/SVG/1.1/DTD/svg11.dtd"><svg t="1693291222103" class="icon" viewBox="0 0 1024 1024" version="1.1" xmlns="http://www.w3.org/2000/svg" p-id="19557" xmlns:xlink="http://www.w3.org/1999/xlink" width="200" height="200"><path d="M512 995.555556c267.064889 0 483.555556-216.490667 483.555556-483.555556S779.064889 28.444444 512 28.444444 28.444444 244.935111 28.444444 512s216.490667 483.555556 483.555556 483.555556z m0 28.444444C229.233778 1024 0 794.766222 0 512S229.233778 0 512 0s512 229.233778 512 512-229.233778 512-512 512z m280.32-629.560889l-66.161778 187.761778a65.308444 65.308444 0 0 1-61.354666 43.690667H406.471111a65.422222 65.422222 0 0 1-63.857778-52.963556l-43.804444-223.630222-14.478222-67.072H235.832889a13.994667 13.994667 0 0 1-13.966222-14.051556c0-7.793778 6.257778-14.08 13.966222-14.08h59.733333c0.455111 0 0.824889 0.227556 1.223111 0.284445a13.112889 13.112889 0 0 1 5.205334 1.507555 13.368889 13.368889 0 0 1 2.218666 1.507556c0.711111 0.568889 1.308444 1.137778 1.905778 1.820444a14.136889 14.136889 0 0 1 1.422222 2.161778c0.483556 0.853333 0.853333 1.706667 1.137778 2.616889 0.142222 0.426667 0.455111 0.739556 0.540445 1.194667l14.506666 67.128888h425.102222c14.961778 0 29.070222 7.338667 37.688889 19.683556 8.675556 12.316444 10.808889 28.188444 5.802667 42.467556z m-28.586667-26.225778a17.948444 17.948444 0 0 0-14.904889-7.793777H329.443556l40.533333 207.075555c3.441778 17.493333 18.773333 30.236444 36.494222 30.236445h258.332445c15.701333 0 29.809778-10.040889 35.072-24.974223l66.161777-187.733333a18.318222 18.318222 0 0 0-2.304-16.782222zM396.344889 656.412444c31.032889 0 56.263111 25.457778 56.263111 56.746667s-25.230222 56.746667-56.263111 56.746667a56.576 56.576 0 0 1-56.263111-56.746667c0-31.288889 25.230222-56.746667 56.263111-56.746667z m0 85.333334c15.644444 0 28.359111-12.8 28.359111-28.586667 0-15.758222-12.714667-28.558222-28.359111-28.558222s-28.330667 12.8-28.330667 28.558222c0 15.786667 12.714667 28.615111 28.330667 28.615111z m248.661333-85.333334c31.004444 0 56.234667 25.457778 56.234667 56.746667s-25.230222 56.746667-56.234667 56.746667a56.547556 56.547556 0 0 1-56.234666-56.746667c0-31.288889 25.230222-56.746667 56.234666-56.746667z m0 85.333334c15.644444 0 28.359111-12.8 28.359111-28.586667 0-15.758222-12.743111-28.558222-28.359111-28.558222-15.644444 0-28.359111 12.8-28.359111 28.558222 0 15.786667 12.714667 28.615111 28.359111 28.615111z" fill="#1296db" p-id="19558"></path></svg>